<?xml version="1.0" encoding="utf-8"?>
<svg version="1.1" xmlns:xlink="http://www.w3.org/1999/xlink" width="40px" height="50px" xmlns="http://www.w3.org/2000/svg">
  <defs>
    <filter x="408px" y="61px" width="40px" height="50px" filterUnits="userSpaceOnUse" id="filter1">
      <feOffset dx="1" dy="1" in="SourceAlpha" result="shadowOffsetInner" />
      <feGaussianBlur stdDeviation="2.5" in="shadowOffsetInner" result="shadowGaussian" />
      <feComposite in2="shadowGaussian" operator="atop" in="SourceAlpha" result="shadowComposite" />
      <feColorMatrix type="matrix" values="0 0 0 0 0  0 0 0 0 0  0 0 0 0 0  0 0 0 0.698039215686274 0  " in="shadowComposite" />
    </filter>
    <g id="widget2">
      <path d="M 427 104.036928468354  C 421.2 94.4073405959099  412.5 88.6295878724437  412.5 79  C 412.5 73.9857142857143  415.4 65.5  427 65.5  C 438.6 65.5  441.5 73.9857142857143  441.5 79  C 441.5 88.6295878724437  432.8 94.4073405959099  427 104.036928468354  Z " fill-rule="nonzero" fill="#009dd9" stroke="none" />
      <path d="M 427 105  C 421 95  412 89  412 79  C 412 73.8  415 65  427 65  C 439 65  442 73.8  442 79  C 442 89  433 95  427 105  Z M 427 103.073856936707  C 432.6 93.8146811918198  441 88.2591757448874  441 79  C 441 74.1714285714286  438.2 66  427 66  C 415.8 66  413 74.1714285714286  413 79  C 413 88.2591757448874  421.4 93.8146811918198  427 103.073856936707  Z " fill-rule="nonzero" fill="#ffffff" stroke="none" />
    </g>
  </defs>
  <g transform="matrix(1 0 0 1 -408 -61 )">
    <use xlink:href="#widget2" filter="url(#filter1)" />
    <use xlink:href="#widget2" />
  </g>
</svg>